<?xml version="1.0" encoding="UTF-8"?>
<svg id="_レイヤー_1" data-name="レイヤー 1" xmlns="http://www.w3.org/2000/svg" viewBox="0 0 28 15.75">
  <defs>
    <style>
      .cls-1 {
        fill: #90a93a;
        stroke-width: 0px;
      }
    </style>
  </defs>
  <path class="cls-1" d="m0,9.54v-3.34L11.86,0v3.07L3.1,7.81l8.76,4.84v3.1L0,9.54ZM27.81.66l-10.35,14.44h-3.55L24.28.66h3.53Zm-2.87,12.71c.24,0,.46-.1.62-.28.17-.2.26-.47.25-.73,0-.27-.08-.54-.25-.75-.26-.34-.74-.4-1.08-.14-.05.04-.1.09-.14.14-.17.21-.26.48-.25.75-.01.26.07.52.24.73.15.18.37.28.61.28Zm2.19,1.04c-1.24,1.12-3.12,1.11-4.35-.01-1.13-1.1-1.15-2.92-.05-4.05.02-.02.03-.03.05-.05,1.23-1.13,3.12-1.13,4.35,0,.56.53.88,1.28.87,2.05.01.78-.3,1.52-.87,2.05h0Zm-10.31-9.48c.24,0,.46-.1.62-.28.17-.2.26-.47.25-.73,0-.27-.08-.54-.25-.75-.26-.34-.74-.4-1.08-.14-.05.04-.1.09-.14.14-.17.21-.26.48-.25.75-.01.26.07.52.24.73.15.18.37.28.61.28Zm2.19,1.04c-1.24,1.12-3.12,1.11-4.35-.01-1.13-1.1-1.15-2.92-.05-4.05.02-.02.03-.03.05-.05,1.23-1.13,3.12-1.13,4.35,0,.57.54.88,1.28.87,2.06.01.77-.3,1.52-.87,2.05Z"/>
</svg>